# xmcd
#
# Track frame offsets: 
#        150
#        8577
#        22301
#        29656
#        40948
#        54771
#        72675
#        85084
#        99942
#        111950
#        126735
#        136591
#        147420
#        160006
#        170684
#        180817
#        207755
#
# Disc length: 2778 seconds
#
# Revision: 0
# Processed by: cddbd v1.5.2PL0 Copyright (c) Steve Scherf et al.
# Submitted via: ExactAudioCopyFreeDBPlugin 1.0
#
DISCID=e60ad811
DTITLE=Pacifik - Velká vlaková loupež
DYEAR=2006
DGENRE=Folk
TTITLE0=Zlato
TTITLE1=Už koně me vítaj
TTITLE2=Zvědavá píseň
TTITLE3=Všivá loď
TTITLE4=Vzdálený Pacifik
TTITLE5=Moritát o řezníku Peroutkovi
TTITLE6=Listopad
TTITLE7=Mississippi blues
TTITLE8=Oregon
TTITLE9=Někdo si píská
TTITLE10=Jim z fregaty
TTITLE11=Klára
TTITLE12=Čínská čtvrť
TTITLE13=Neznámá země
TTITLE14=Tak šel čas
TTITLE15=Velká vlaková loupež
TTITLE16=Bonus
EXTD=
EXTT0=
EXTT1=
EXTT2=
EXTT3=
EXTT4=
EXTT5=
EXTT6=
EXTT7=
EXTT8=
EXTT9=
EXTT10=
EXTT11=
EXTT12=
EXTT13=
EXTT14=
EXTT15=
EXTT16=
PLAYORDER=
